<?xml version="1.0" standalone="no"?>
<!DOCTYPE svg PUBLIC "-//W3C//DTD SVG 20010904//EN"
 "http://www.w3.org/TR/2001/REC-SVG-20010904/DTD/svg10.dtd">
<svg version="1.0" xmlns="http://www.w3.org/2000/svg"
 width="657.000000pt" height="657.000000pt" viewBox="0 0 657.000000 657.000000"
 preserveAspectRatio="xMidYMid meet">
<metadata>
Created by potrace 1.11, written by Peter Selinger 2001-2013
</metadata>
<g transform="translate(0.000000,657.000000) scale(0.100000,-0.100000)"
fill="#000000" stroke="none">
<path d="M2979 5345 c-151 -124 -281 -231 -289 -239 -8 -7 -139 -116 -290
-240 -151 -125 -283 -233 -292 -241 -10 -8 -110 -91 -223 -185 -112 -93 -208
-170 -211 -170 -4 0 -12 -6 -18 -14 -6 -8 -45 -42 -86 -75 -41 -34 -82 -67
-90 -75 -8 -7 -278 -231 -600 -496 -322 -265 -595 -490 -607 -500 -12 -10 -77
-64 -145 -120 -68 -57 -124 -108 -126 -115 -2 -10 108 -13 545 -14 301 -1 559
-2 573 -4 l25 -2 0 135 0 135 -125 2 c-124 3 -251 11 -257 17 -2 1 138 118
309 259 172 141 320 263 328 271 39 36 721 596 726 596 3 0 13 9 22 19 10 10
123 106 252 212 129 106 312 257 405 334 94 78 213 176 265 219 52 42 115 94
139 114 23 20 46 38 50 40 3 1 28 -18 55 -43 27 -25 51 -45 53 -45 2 0 142
-116 311 -257 169 -142 316 -265 327 -274 31 -27 443 -370 613 -512 84 -70
157 -125 161 -122 5 3 9 49 9 103 1 53 2 102 3 107 1 6 3 197 4 425 1 403 2
415 21 413 33 -3 45 -8 206 -86 86 -41 166 -78 176 -82 16 -5 19 -13 16 -43
-8 -67 -11 -87 -18 -112 -3 -14 -8 -46 -10 -71 -2 -26 -6 -51 -9 -55 -3 -5 -8
-36 -11 -69 -8 -69 -11 -89 -25 -165 -6 -30 -12 -75 -15 -101 -3 -25 -7 -52
-10 -60 -5 -15 -18 -106 -21 -155 -1 -17 -4 -35 -7 -40 -4 -5 -9 -36 -13 -69
-9 -71 -10 -79 -20 -128 -6 -29 -4 -42 10 -57 9 -10 176 -148 370 -307 194
-158 352 -290 350 -292 -2 -2 -91 -4 -197 -5 l-193 -1 0 -135 0 -135 260 -3
c732 -10 905 -11 910 -2 3 5 -70 70 -162 145 -93 76 -176 146 -185 157 -10 11
-18 17 -18 14 0 -5 -94 70 -193 155 -20 16 -489 399 -542 441 -119 96 -117 92
-110 150 3 28 8 54 10 57 3 6 15 103 20 157 1 11 5 25 9 32 4 7 6 22 5 35 -2
12 -1 27 3 32 3 6 8 33 11 60 3 28 8 57 11 65 3 8 8 38 11 65 8 72 21 159 30
199 3 12 7 41 10 66 2 25 6 54 9 65 11 55 27 165 30 201 1 22 6 45 9 51 4 7
-20 24 -60 43 -38 17 -232 108 -433 202 -201 93 -392 183 -424 198 -33 16 -63
27 -67 25 -7 -5 -8 -30 -14 -580 -2 -181 -4 -331 -4 -333 -1 -5 -33 19 -87 65
-27 23 -233 196 -458 383 -225 188 -414 347 -421 353 -7 7 -69 59 -139 116
-69 57 -126 108 -126 112 0 31 -69 -17 -311 -216z"/>
<path d="M3246 3973 c-2 -3 -25 -6 -51 -9 -101 -8 -246 -106 -314 -212 -29
-46 -68 -155 -70 -197 -2 -53 -1 -122 3 -140 10 -50 47 -137 75 -178 69 -100
208 -194 298 -201 22 -1 44 -5 49 -8 9 -6 80 -3 124 6 69 13 88 19 139 47 99
54 219 195 234 276 2 10 8 26 12 37 9 22 11 146 2 199 -3 21 -22 71 -42 111
-68 141 -220 253 -351 261 -17 1 -35 4 -40 7 -11 7 -61 7 -68 1z"/>
<path d="M1812 3666 c-44 -42 -46 -45 -45 -102 1 -74 3 -95 10 -114 3 -8 7
-25 9 -36 1 -12 20 -51 42 -85 22 -35 117 -197 212 -359 95 -162 178 -300 184
-305 6 -6 12 -15 13 -20 1 -6 21 -44 45 -84 24 -40 51 -87 62 -104 23 -40 157
-265 173 -292 7 -11 16 -27 20 -35 4 -8 52 -91 108 -185 90 -151 242 -408 286
-483 9 -15 53 -90 99 -167 130 -220 180 -306 213 -363 17 -29 36 -51 41 -49 5
2 21 24 35 49 14 25 59 101 99 168 40 67 74 127 75 133 1 7 7 16 13 22 9 9
110 177 446 750 32 55 63 107 68 115 39 65 201 340 212 360 7 14 23 39 35 57
13 17 26 39 30 49 5 11 68 120 142 244 369 621 336 559 348 645 14 101 -2 182
-42 215 -25 21 -93 20 -150 -2 -65 -25 -118 -77 -223 -218 -188 -251 -446
-461 -687 -560 -16 -6 -31 -12 -32 -11 -2 0 -23 -8 -48 -19 -25 -11 -45 -17
-45 -15 0 3 -12 0 -27 -6 -16 -6 -46 -13 -68 -16 -21 -2 -44 -7 -49 -11 -6 -3
-25 -5 -43 -3 -18 1 -38 -1 -45 -5 -15 -10 -78 -12 -78 -3 0 4 -30 10 -67 14
-38 4 -75 11 -84 15 -8 5 -26 11 -40 13 -13 2 -33 7 -44 11 -11 5 -33 12 -50
18 -93 31 -300 134 -333 166 -7 6 -19 12 -27 12 -7 0 -15 3 -17 8 -1 4 -39 34
-83 66 -98 73 -274 248 -335 334 -125 177 -177 222 -260 228 -49 3 -54 1 -98
-40z"/>
</g>
</svg>
